# Blender v2.79 (sub 0) OBJ File: 'pine2.blend'
# www.blender.org
o Circle
v -0.022463 1.009932 -0.892766
v -0.658706 0.978233 -0.700373
v -0.887742 1.017192 0.009640
v -0.644089 1.001922 0.616915
v 0.027053 0.967727 0.950040
v 0.534688 1.089169 0.832868
v 0.881232 1.092449 0.109150
v 0.647558 1.001628 -0.650571
v 0.000000 1.997542 -0.446411
v -0.315660 1.997542 -0.315660
v -0.446411 1.997542 0.000000
v -0.315660 1.997542 0.315660
v 0.000000 1.997542 0.446411
v 0.315660 1.997542 0.315660
v 0.446411 1.997542 -0.000000
v 0.315660 1.997542 -0.315660
v -0.015990 1.709109 -1.086996
v -0.747624 1.682852 -0.773962
v -1.101698 1.686002 -0.039745
v -0.778426 1.692876 0.724357
v -0.016137 1.794321 1.025932
v 0.704553 1.704984 0.705146
v 1.012134 1.768629 -0.042602
v 0.725238 1.701052 -0.776182
v 0.000000 2.945437 -0.279824
v -0.197865 2.945437 -0.197865
v -0.279824 2.945437 -0.000000
v -0.197865 2.945437 0.197865
v 0.000000 2.945437 0.279824
v 0.197865 2.945437 0.197865
v 0.279824 2.945437 -0.000000
v 0.197865 2.945437 -0.197865
v 0.025014 2.558386 -0.815804
v -0.521769 2.641597 -0.549280
v -0.815778 2.565226 0.000000
v -0.559359 2.599855 0.533505
v 0.000000 2.565226 0.815778
v 0.529400 2.656273 0.531155
v 0.815778 2.565226 -0.000000
v 0.570021 2.630283 -0.539766
v -0.000000 3.487717 -0.226069
v -0.159855 3.487717 -0.159855
v -0.226069 3.487717 0.000000
v -0.159855 3.487717 0.159855
v -0.000000 3.487717 0.226069
v 0.159855 3.487717 0.159855
v 0.226069 3.487717 0.000000
v 0.159855 3.487717 -0.159855
v 0.000527 3.309381 -0.612625
v -0.451446 3.249866 -0.451446
v -0.579798 3.340011 -0.018920
v -0.451446 3.249866 0.451446
v -0.001704 3.320064 0.595557
v 0.451446 3.249866 0.451446
v 0.619227 3.283182 0.009010
v 0.405446 3.268970 -0.516737
v 0.087497 4.228996 -0.087497
v 0.123740 4.228996 0.000000
v 0.087497 4.228996 0.087497
v 0.000000 4.228996 0.123740
v -0.087497 4.228996 0.087497
v -0.123740 4.228996 0.000000
v -0.087497 4.228996 -0.087497
v -0.000000 4.228996 -0.123740
v 0.287554 3.876896 -0.356108
v 0.423622 3.877126 0.000000
v 0.299546 3.877126 0.299546
v 0.044528 3.842950 0.504186
v -0.321706 3.899838 0.334563
v -0.463693 3.849569 0.029599
v -0.280770 3.932774 -0.276540
v -0.000000 3.877126 -0.423622
v 0.003044 4.708126 -0.003044
v 0.004305 4.708126 0.000000
v 0.003044 4.708126 0.003044
v -0.000000 4.708126 0.004305
v -0.003044 4.708126 0.003044
v -0.004305 4.708126 0.000000
v -0.003044 4.708126 -0.003044
v -0.000000 4.708126 -0.004305
v -0.022395 1.026845 -0.929015
v -0.683817 0.995783 -0.726090
v -0.924104 1.033847 0.010203
v -0.670078 1.018442 0.642441
v 0.022940 0.985801 0.985485
v 0.554434 1.108982 0.861459
v 0.917222 1.109851 0.110506
v 0.672790 1.018408 -0.676680
v 0.000645 2.014435 -0.482662
v -0.341140 2.015084 -0.341019
v -0.482773 2.014195 0.000671
v -0.341767 2.014062 0.341065
v -0.004166 2.015608 0.481854
v 0.339111 2.017096 0.341498
v 0.482457 2.014878 0.000262
v 0.341417 2.014321 -0.341252
v -0.016449 1.730906 -1.120532
v -0.771297 1.704344 -0.797996
v -1.135244 1.707768 -0.040664
v -0.803447 1.714190 0.747150
v -0.015907 1.815791 1.059680
v 0.729483 1.725237 0.728982
v 1.046177 1.789629 -0.042727
v 0.748547 1.722413 -0.800683
v -0.000183 2.967232 -0.313362
v -0.221518 2.966929 -0.221919
v -0.313379 2.967200 -0.000519
v -0.222168 2.966751 0.221423
v 0.000620 2.966900 0.313571
v 0.222745 2.965692 0.221754
v 0.313874 2.966419 0.000503
v 0.221754 2.966789 -0.221810
v 0.025596 2.579850 -0.849552
v -0.545178 2.662892 -0.573743
v -0.849537 2.586676 0.000360
v -0.583659 2.620960 0.557254
v -0.001022 2.586656 0.849536
v 0.553285 2.677648 0.555082
v 0.849455 2.586805 0.000238
v 0.594104 2.652076 -0.563111
v 0.000126 3.509175 -0.259825
v -0.183465 3.509013 -0.184123
v -0.259830 3.509168 -0.000093
v -0.183985 3.508820 0.183777
v -0.000449 3.509154 0.259835
v 0.183753 3.509092 0.183769
v 0.259744 3.509292 0.000626
v 0.183790 3.509507 -0.183353
v -0.001168 3.328261 -0.647847
v -0.476292 3.268481 -0.476667
v -0.615347 3.358338 -0.019527
v -0.476575 3.268417 0.476432
v -0.001756 3.338524 0.631042
v 0.476674 3.268466 0.476296
v 0.654663 3.301733 0.009306
v 0.429138 3.288214 -0.542588
v 0.111653 4.248215 -0.112934
v 0.159178 4.247544 -0.000114
v 0.112344 4.247595 0.112729
v -0.000026 4.247456 0.159224
v -0.112857 4.247546 0.112250
v -0.159294 4.247319 -0.000295
v -0.112725 4.247611 -0.112336
v -0.001809 4.247872 -0.158958
v 0.310565 3.896029 -0.382647
v 0.459330 3.895146 0.000437
v 0.327117 3.895093 0.322284
v 0.049148 3.862994 0.538492
v -0.346290 3.919611 0.359153
v -0.498964 3.868433 0.029360
v -0.305924 3.950741 -0.301923
v -0.001895 3.895135 -0.459287
v 0.026620 4.727245 -0.029092
v 0.040011 4.726145 0.000499
v 0.031089 4.726060 0.025219
v 0.004165 4.728178 0.038664
v -0.027722 4.727897 0.027539
v -0.039568 4.726940 -0.001565
v -0.027937 4.726090 -0.028685
v -0.003059 4.726101 -0.039906
vn -0.3287 -0.3901 0.8601
vn -0.8213 -0.4269 -0.3785
vn 0.3807 -0.3899 -0.8385
vn 0.8611 -0.3973 0.3172
vn -0.8630 -0.3867 0.3251
vn -0.1884 -0.4763 -0.8589
vn 0.8521 -0.3873 -0.3521
vn 0.3053 -0.4113 0.8589
vn 0.3479 -0.5131 0.7846
vn -0.3354 -0.5111 0.7914
vn -0.7996 -0.4794 -0.3617
vn 0.3657 -0.5048 -0.7820
vn 0.7774 -0.5120 0.3654
vn -0.7914 -0.5014 0.3498
vn -0.3897 -0.4889 -0.7804
vn 0.7951 -0.5081 -0.3313
vn 0.7915 -0.5025 0.3479
vn -0.7996 -0.5151 0.3087
vn -0.3372 -0.5060 -0.7939
vn 0.7925 -0.5039 -0.3436
vn 0.3189 -0.5034 0.8031
vn -0.3327 -0.5111 0.7925
vn -0.7936 -0.5057 -0.3383
vn 0.3583 -0.4990 -0.7891
vn -0.8316 -0.4319 0.3491
vn 0.8449 -0.4297 -0.3187
vn -0.2652 -0.4591 0.8479
vn 0.8337 -0.4355 0.3394
vn 0.3371 -0.4349 -0.8350
vn -0.3353 -0.4344 -0.8360
vn 0.3511 -0.4387 0.8272
vn -0.8296 -0.4376 -0.3469
vn 0.3124 -0.4632 -0.8294
vn 0.3538 -0.4213 0.8350
vn 0.8329 -0.4565 -0.3128
vn -0.8448 -0.4264 0.3233
vn -0.2070 -0.4412 0.8732
vn -0.8374 -0.4225 -0.3468
vn 0.8227 -0.4271 0.3751
vn -0.5213 -0.4463 -0.7274
vn 0.3299 0.3901 -0.8596
vn 0.8209 0.4264 0.3799
vn -0.3817 0.3898 0.8381
vn -0.8606 0.3973 -0.3186
vn 0.8628 0.3864 -0.3261
vn 0.1913 0.4770 0.8578
vn -0.8520 0.3873 0.3522
vn -0.3072 0.4115 -0.8581
vn -0.3470 0.5131 -0.7850
vn 0.3346 0.5112 -0.7917
vn 0.8003 0.4794 0.3601
vn -0.3643 0.5047 0.7826
vn -0.7779 0.5121 -0.3642
vn 0.7917 0.5014 -0.3490
vn 0.3876 0.4890 0.7814
vn -0.7954 0.5082 0.3302
vn -0.7918 0.5024 -0.3473
vn 0.7994 0.5152 -0.3092
vn 0.3362 0.5060 0.7943
vn -0.7928 0.5040 0.3426
vn -0.3189 0.5034 -0.8031
vn 0.3330 0.5111 -0.7924
vn 0.7937 0.5056 0.3382
vn -0.3574 0.4990 0.7894
vn 0.8314 0.4318 -0.3499
vn -0.8443 0.4296 0.3203
vn 0.2691 0.4593 -0.8466
vn -0.8334 0.4355 -0.3403
vn -0.3381 0.4350 0.8346
vn 0.3361 0.4343 0.8357
vn -0.3522 0.4388 -0.8267
vn 0.8296 0.4377 0.3467
vn -0.3091 0.4632 0.8306
vn -0.3564 0.4211 -0.8341
vn -0.8319 0.4568 0.3150
vn 0.8425 0.4265 -0.3290
vn 0.2197 0.4421 -0.8697
vn 0.8394 0.4224 0.3420
vn -0.8236 0.4271 -0.3733
vn 0.5095 0.4477 0.7349
vn -0.0955 -0.8858 -0.4541
vn -0.4524 -0.8862 -0.0996
vn -0.4167 -0.8974 0.1451
vn -0.2363 -0.8906 0.3886
vn 0.3003 -0.8513 0.4303
vn 0.4582 -0.8617 0.2180
vn 0.4738 -0.8796 -0.0428
vn 0.1430 -0.8939 -0.4249
vn 0.1769 0.8878 0.4249
vn 0.4216 0.8895 0.1759
vn 0.4066 0.8980 -0.1683
vn 0.1726 0.8908 -0.4204
vn -0.1945 0.8621 -0.4680
vn -0.4547 0.8696 -0.1926
vn -0.4206 0.8906 0.1732
vn -0.1714 0.8941 0.4137
vn -0.1992 -0.8215 -0.5342
vn -0.5148 -0.8218 -0.2442
vn -0.5207 -0.8231 0.2268
vn -0.1174 -0.8160 0.5660
vn 0.1385 -0.8297 0.5407
vn 0.5270 -0.8372 0.1460
vn 0.5485 -0.8243 -0.1405
vn 0.2120 -0.8223 -0.5280
vn 0.2175 0.8214 0.5273
vn 0.5273 0.8212 0.2181
vn 0.5262 0.8224 -0.2162
vn 0.2169 0.8231 -0.5248
vn -0.2090 0.8338 -0.5110
vn -0.5024 0.8398 -0.2060
vn -0.5179 0.8279 0.2153
vn -0.2170 0.8216 0.5272
vn -0.3462 -0.8157 -0.4634
vn -0.4591 -0.8143 -0.3552
vn -0.4867 -0.8257 0.2853
vn -0.2924 -0.8259 0.4821
vn 0.3769 -0.8091 0.4510
vn 0.4476 -0.8114 0.3760
vn 0.4853 -0.8150 -0.3167
vn 0.3423 -0.8142 -0.4690
vn 0.2151 0.8258 0.5214
vn 0.5226 0.8247 0.2163
vn 0.5198 0.8270 -0.2140
vn 0.2142 0.8275 -0.5190
vn -0.2164 0.8240 -0.5236
vn -0.5229 0.8245 -0.2163
vn -0.5296 0.8193 0.2195
vn -0.2199 0.8206 0.5275
vn -0.0697 -0.8611 -0.5036
vn -0.5261 -0.8503 0.0139
vn -0.5234 -0.8519 -0.0141
vn -0.0348 -0.8588 0.5111
vn 0.0352 -0.8580 0.5124
vn 0.4820 -0.8680 0.1197
vn 0.4767 -0.8621 -0.1721
vn 0.0425 -0.8543 -0.5180
vn -0.4633 0.8641 0.1966
vn -0.1887 0.8706 -0.4543
vn 0.4523 0.8718 -0.1879
vn 0.4518 0.8719 0.1888
vn 0.1897 0.8690 0.4570
vn -0.4566 0.8692 -0.1896
vn 0.1893 0.8702 -0.4549
vn -0.1937 0.8614 0.4696
vn 0.4672 -0.8655 -0.1808
vn 0.3841 -0.8536 0.3520
vn -0.4145 -0.8489 0.3281
vn -0.3371 -0.8437 -0.4179
vn -0.3500 -0.8666 -0.3556
vn 0.4358 -0.8819 0.1797
vn -0.3297 -0.8302 0.4495
vn 0.1162 -0.8696 -0.4798
vn -0.4442 0.8663 0.2286
vn -0.1742 0.8604 -0.4789
vn 0.4685 0.8565 -0.2165
vn 0.4567 0.8731 0.1706
vn 0.1919 0.8822 0.4301
vn -0.4414 0.8831 -0.1592
vn 0.1739 0.8427 -0.5096
vn -0.1986 0.8676 0.4560
usemtl None
s off
f 1//1 8//1 16//1 9//1
f 7//2 6//2 14//2 15//2
f 5//3 4//3 12//3 13//3
f 3//4 2//4 10//4 11//4
f 8//5 7//5 15//5 16//5
f 6//6 5//6 13//6 14//6
f 4//7 3//7 11//7 12//7
f 2//8 1//8 9//8 10//8
f 18//9 17//9 25//9 26//9
f 17//10 24//10 32//10 25//10
f 23//11 22//11 30//11 31//11
f 21//12 20//12 28//12 29//12
f 19//13 18//13 26//13 27//13
f 24//14 23//14 31//14 32//14
f 22//15 21//15 29//15 30//15
f 20//16 19//16 27//16 28//16
f 35//17 34//17 42//17 43//17
f 40//18 39//18 47//18 48//18
f 38//19 37//19 45//19 46//19
f 36//20 35//20 43//20 44//20
f 34//21 33//21 41//21 42//21
f 33//22 40//22 48//22 41//22
f 39//23 38//23 46//23 47//23
f 37//24 36//24 44//24 45//24
f 56//25 55//25 58//25 57//25
f 52//26 51//26 62//26 61//26
f 49//27 56//27 57//27 64//27
f 51//28 50//28 63//28 62//28
f 53//29 52//29 61//29 60//29
f 54//30 53//30 60//30 59//30
f 50//31 49//31 64//31 63//31
f 55//32 54//32 59//32 58//32
f 68//33 69//33 77//33 76//33
f 71//34 72//34 80//34 79//34
f 69//35 70//35 78//35 77//35
f 65//36 66//36 74//36 73//36
f 72//37 65//37 73//37 80//37
f 66//38 67//38 75//38 74//38
f 70//39 71//39 79//39 78//39
f 67//40 68//40 76//40 75//40
f 81//41 89//41 96//41 88//41
f 87//42 95//42 94//42 86//42
f 85//43 93//43 92//43 84//43
f 83//44 91//44 90//44 82//44
f 88//45 96//45 95//45 87//45
f 86//46 94//46 93//46 85//46
f 84//47 92//47 91//47 83//47
f 82//48 90//48 89//48 81//48
f 98//49 106//49 105//49 97//49
f 97//50 105//50 112//50 104//50
f 103//51 111//51 110//51 102//51
f 101//52 109//52 108//52 100//52
f 99//53 107//53 106//53 98//53
f 104//54 112//54 111//54 103//54
f 102//55 110//55 109//55 101//55
f 100//56 108//56 107//56 99//56
f 115//57 123//57 122//57 114//57
f 120//58 128//58 127//58 119//58
f 118//59 126//59 125//59 117//59
f 116//60 124//60 123//60 115//60
f 114//61 122//61 121//61 113//61
f 113//62 121//62 128//62 120//62
f 119//63 127//63 126//63 118//63
f 117//64 125//64 124//64 116//64
f 136//65 137//65 138//65 135//65
f 132//66 141//66 142//66 131//66
f 129//67 144//67 137//67 136//67
f 131//68 142//68 143//68 130//68
f 133//69 140//69 141//69 132//69
f 134//70 139//70 140//70 133//70
f 130//71 143//71 144//71 129//71
f 135//72 138//72 139//72 134//72
f 148//73 156//73 157//73 149//73
f 151//74 159//74 160//74 152//74
f 149//75 157//75 158//75 150//75
f 145//76 153//76 154//76 146//76
f 152//77 160//77 153//77 145//77
f 146//78 154//78 155//78 147//78
f 150//79 158//79 159//79 151//79
f 147//80 155//80 156//80 148//80
f 1//81 2//81 82//81 81//81
f 2//82 3//82 83//82 82//82
f 3//83 4//83 84//83 83//83
f 4//84 5//84 85//84 84//84
f 5//85 6//85 86//85 85//85
f 6//86 7//86 87//86 86//86
f 7//87 8//87 88//87 87//87
f 8//88 1//88 81//88 88//88
f 10//89 9//89 89//89 90//89
f 11//90 10//90 90//90 91//90
f 12//91 11//91 91//91 92//91
f 13//92 12//92 92//92 93//92
f 14//93 13//93 93//93 94//93
f 15//94 14//94 94//94 95//94
f 16//95 15//95 95//95 96//95
f 9//96 16//96 96//96 89//96
f 17//97 18//97 98//97 97//97
f 18//98 19//98 99//98 98//98
f 19//99 20//99 100//99 99//99
f 20//100 21//100 101//100 100//100
f 21//101 22//101 102//101 101//101
f 22//102 23//102 103//102 102//102
f 23//103 24//103 104//103 103//103
f 24//104 17//104 97//104 104//104
f 26//105 25//105 105//105 106//105
f 27//106 26//106 106//106 107//106
f 28//107 27//107 107//107 108//107
f 29//108 28//108 108//108 109//108
f 30//109 29//109 109//109 110//109
f 31//110 30//110 110//110 111//110
f 32//111 31//111 111//111 112//111
f 25//112 32//112 112//112 105//112
f 33//113 34//113 114//113 113//113
f 34//114 35//114 115//114 114//114
f 35//115 36//115 116//115 115//115
f 36//116 37//116 117//116 116//116
f 37//117 38//117 118//117 117//117
f 38//118 39//118 119//118 118//118
f 39//119 40//119 120//119 119//119
f 40//120 33//120 113//120 120//120
f 42//121 41//121 121//121 122//121
f 43//122 42//122 122//122 123//122
f 44//123 43//123 123//123 124//123
f 45//124 44//124 124//124 125//124
f 46//125 45//125 125//125 126//125
f 47//126 46//126 126//126 127//126
f 48//127 47//127 127//127 128//127
f 41//128 48//128 128//128 121//128
f 49//129 50//129 130//129 129//129
f 50//130 51//130 131//130 130//130
f 51//131 52//131 132//131 131//131
f 52//132 53//132 133//132 132//132
f 53//133 54//133 134//133 133//133
f 54//134 55//134 135//134 134//134
f 55//135 56//135 136//135 135//135
f 56//136 49//136 129//136 136//136
f 57//137 58//137 138//137 137//137
f 59//138 60//138 140//138 139//138
f 61//139 62//139 142//139 141//139
f 62//140 63//140 143//140 142//140
f 63//141 64//141 144//141 143//141
f 58//142 59//142 139//142 138//142
f 60//143 61//143 141//143 140//143
f 64//144 57//144 137//144 144//144
f 66//145 65//145 145//145 146//145
f 68//146 67//146 147//146 148//146
f 70//147 69//147 149//147 150//147
f 71//148 70//148 150//148 151//148
f 72//149 71//149 151//149 152//149
f 67//150 66//150 146//150 147//150
f 69//151 68//151 148//151 149//151
f 65//152 72//152 152//152 145//152
f 73//153 74//153 154//153 153//153
f 75//154 76//154 156//154 155//154
f 77//155 78//155 158//155 157//155
f 78//156 79//156 159//156 158//156
f 79//157 80//157 160//157 159//157
f 74//158 75//158 155//158 154//158
f 76//159 77//159 157//159 156//159
f 80//160 73//160 153//160 160//160
o Cylinder
v 0.000000 0.000000 -0.197624
v 0.000000 2.000000 -0.197624
v 0.139741 0.000000 -0.139741
v 0.139741 2.000000 -0.139741
v 0.197624 0.000000 0.000000
v 0.197624 2.000000 0.000000
v 0.139741 0.000000 0.139741
v 0.139741 2.000000 0.139741
v -0.000000 0.000000 0.197624
v -0.000000 2.000000 0.197624
v -0.139741 0.000000 0.139741
v -0.139741 2.000000 0.139741
v -0.197624 0.000000 -0.000000
v -0.197624 2.000000 -0.000000
v -0.139741 0.000000 -0.139741
v -0.139741 2.000000 -0.139741
v -0.000000 3.465692 -0.091667
v 0.064818 3.465692 -0.064818
v 0.091667 3.465692 0.000000
v 0.064818 3.465692 0.064818
v -0.000000 3.465692 0.091667
v -0.064818 3.465692 0.064818
v -0.091667 3.465692 -0.000000
v -0.064818 3.465692 -0.064818
v -0.000000 4.731785 -0.010106
v 0.007146 4.731785 -0.007146
v 0.010106 4.731785 -0.000000
v 0.007146 4.731785 0.007146
v -0.000000 4.731785 0.010106
v -0.007146 4.731785 0.007146
v -0.010106 4.731785 -0.000000
v -0.007146 4.731785 -0.007146
vn 0.3827 0.0000 -0.9239
vn 0.9239 0.0000 -0.3827
vn 0.9239 0.0000 0.3827
vn 0.3827 0.0000 0.9239
vn -0.3827 0.0000 0.9239
vn -0.9239 0.0000 0.3827
vn -0.3818 0.0666 0.9218
vn -0.9239 0.0000 -0.3827
vn -0.3827 0.0000 -0.9239
vn 0.0000 -1.0000 0.0000
vn 0.9222 0.0594 -0.3820
vn -0.3818 0.0666 -0.9218
vn 0.3818 0.0666 -0.9218
vn 0.9218 0.0666 0.3818
vn -0.9218 0.0666 0.3818
vn 0.3818 0.0666 0.9218
vn -0.9218 0.0666 -0.3818
vn 0.9218 0.0666 -0.3818
vn 0.0000 1.0000 0.0000
vn -0.9222 0.0594 -0.3820
vn -0.3820 0.0594 0.9222
vn 0.9222 0.0594 0.3820
vn 0.3820 0.0594 -0.9222
vn -0.3820 0.0594 -0.9222
vn -0.9222 0.0594 0.3820
vn 0.3820 0.0594 0.9222
usemtl None
s off
f 161//161 162//161 164//161 163//161
f 163//162 164//162 166//162 165//162
f 165//163 166//163 168//163 167//163
f 167//164 168//164 170//164 169//164
f 169//165 170//165 172//165 171//165
f 171//166 172//166 174//166 173//166
f 172//167 170//167 181//167 182//167
f 173//168 174//168 176//168 175//168
f 175//169 176//169 162//169 161//169
f 161//170 163//170 165//170 167//170 169//170 171//170 173//170 175//170
f 179//171 178//171 186//171 187//171
f 162//172 176//172 184//172 177//172
f 164//173 162//173 177//173 178//173
f 168//174 166//174 179//174 180//174
f 174//175 172//175 182//175 183//175
f 170//176 168//176 180//176 181//176
f 176//177 174//177 183//177 184//177
f 166//178 164//178 178//178 179//178
f 186//179 185//179 192//179 191//179 190//179 189//179 188//179 187//179
f 184//180 183//180 191//180 192//180
f 182//181 181//181 189//181 190//181
f 180//182 179//182 187//182 188//182
f 178//183 177//183 185//183 186//183
f 177//184 184//184 192//184 185//184
f 183//185 182//185 190//185 191//185
f 181//186 180//186 188//186 189//186
